<svg version="1.1" xmlns="http://www.w3.org/2000/svg" xmlns:xlink="http://www.w3.org/1999/xlink" width="500" height="500"><g data-paper-data="{&quot;description&quot;:&quot;Logo for FIVE\n=============\n\nThis logo was generated by MarkMaker at http://emblemmatic.org/markmaker/ and may be composed of elements designed by others.\n\nThe font is Cherry Cream Soda designed by Font Diner and released under the APACHE2 license via Google Fonts: https://www.google.com/fonts/specimen/Cherry%20Cream%20Soda. The font includes this copyright statement: Copyright (c) 2010 by Font Diner, Inc. (diner@fontdiner.com) All rights reserved.\n\nMarkMaker uses semantic data from the Princeton University WordNet database http://wordnet.princeton.edu and font descriptions from Google Fonts https://www.google.com/fonts.&quot;}" fill="#543f2a" fill-rule="nonzero" stroke="none" stroke-width="1" stroke-linecap="butt" stroke-linejoin="miter" stroke-miterlimit="10" stroke-dasharray="" stroke-dashoffset="0" font-family="none" font-weight="none" font-size="none" text-anchor="none" style="mix-blend-mode: normal"><g data-paper-data="{&quot;elementType&quot;:&quot;logo&quot;}"><g data-paper-data="{&quot;elementType&quot;:&quot;text&quot;}"><g data-paper-data="{&quot;baseline&quot;:71.97265625,&quot;elementType&quot;:&quot;row&quot;}"><g data-paper-data="{&quot;baselineProportion&quot;:0.9981941309255078,&quot;fontSize&quot;:100,&quot;baseline&quot;:71.97265625,&quot;elementType&quot;:&quot;word&quot;}"><path d="M145.119,215.92124c-0.44345,-0.17738 -1.52989,-0.31041 -3.25932,-0.3991c-1.72944,-0.08869 -3.8358,-0.17738 -6.31909,-0.26607c-2.48329,-0.08869 -5.14396,-0.15521 -7.98201,-0.19955c-2.83805,-0.04434 -5.52089,-0.06652 -8.04853,-0.06652c-2.52764,0 -4.76704,0 -6.7182,0c-1.95116,0 -3.28149,0 -3.99101,0c-11.3522,0 -22.74874,0.13303 -34.18963,0.3991c-0.44345,4.43445 -0.70951,8.84673 -0.7982,13.23684c-0.08869,4.39011 -0.13303,8.84673 -0.13303,13.36987l60.39724,-0.66517l-0.13303,14.23459c-0.53213,-0.17738 -2.15071,-0.33258 -4.85573,-0.46562c-2.70502,-0.13303 -5.60958,-0.22172 -8.7137,-0.26607c-3.10412,-0.04434 -6.0752,-0.06652 -8.91325,-0.06652c-2.83805,0 -4.65617,0 -5.45438,0c-10.73137,0 -21.55144,0.13303 -32.46019,0.3991c0,3.99101 -0.02217,7.95984 -0.06652,11.9065c-0.04434,3.94666 -0.06652,7.9155 -0.06652,11.9065c0,0.70951 0,2.08419 0,4.12404c0,2.03985 0.04434,4.14621 0.13303,6.31909c0.08869,2.17288 0.28824,4.19056 0.59865,6.05303c0.31041,1.86247 0.73168,3.01543 1.26382,3.45887h-23.28087c0.53213,-0.53213 0.97558,-2.2394 1.33034,-5.12179c0.35476,-2.88239 0.643,-6.36344 0.86472,-10.44313c0.22172,-4.0797 0.35476,-8.51415 0.3991,-13.30336c0.04434,-4.78921 0.06652,-9.35669 0.06652,-13.70246c0,-4.34576 -0.02217,-8.18156 -0.06652,-11.5074c-0.04434,-3.32584 -0.06652,-5.65393 -0.06652,-6.98426c0,-0.7982 0,-2.17288 0,-4.12404c0,-1.95116 -0.02217,-4.12404 -0.06652,-6.51864c-0.04434,-2.3946 -0.11086,-4.94441 -0.19955,-7.64943c-0.08869,-2.70502 -0.24389,-5.21048 -0.46562,-7.5164c-0.22172,-2.30592 -0.50996,-4.32359 -0.86472,-6.05303c-0.35476,-1.72944 -0.7982,-2.90457 -1.33034,-3.52539c-0.26607,-0.26607 -0.55431,-0.53213 -0.86472,-0.7982c-0.31041,-0.26607 -0.59865,-0.53213 -0.86472,-0.7982l96.58237,0.26607z" data-paper-data="{&quot;elementType&quot;:&quot;letter&quot;,&quot;baseline&quot;:71.97265625,&quot;baselineProportion&quot;:1,&quot;fontSize&quot;:100}"></path><path d="M166.39373,298.93418c0.53213,-0.53213 0.97558,-2.2394 1.33034,-5.12179c0.35476,-2.88239 0.643,-6.36344 0.86472,-10.44313c0.22172,-4.0797 0.35476,-8.51415 0.3991,-13.30336c0.04434,-4.78921 0.06652,-9.35669 0.06652,-13.70246c0,-4.34576 -0.02217,-8.18156 -0.06652,-11.5074c-0.04434,-3.32584 -0.06652,-5.65393 -0.06652,-6.98426c0,-0.7982 0.02217,-2.21723 0.06652,-4.25707c0.04434,-2.03985 0.04434,-4.39011 0,-7.05078c-0.04434,-2.66067 -0.13303,-5.45438 -0.26607,-8.38111c-0.13303,-2.92674 -0.37693,-5.63175 -0.73168,-8.11505c-0.35476,-2.48329 -0.84255,-4.56749 -1.46337,-6.25258c-0.62082,-1.68509 -1.37468,-2.66067 -2.26157,-2.92674h29.79952c-1.15296,0 -2.10636,1.01992 -2.86022,3.05977c-0.75386,2.03985 -1.35251,4.61183 -1.79595,7.71595c-0.44345,3.10412 -0.77603,6.54082 -0.99775,10.3101c-0.22172,3.76928 -0.37693,7.38336 -0.46562,10.84224c-0.08869,3.45887 -0.13303,6.54082 -0.13303,9.24583c0,2.70502 0,4.54531 0,5.52089c0,5.23265 -0.02217,10.44313 -0.06652,15.63144c-0.04434,5.18831 -0.06652,10.44313 -0.06652,15.76448c0,0.70951 0,2.08419 0,4.12404c0,2.03985 0.04434,4.14621 0.13303,6.31909c0.08869,2.17288 0.28824,4.19056 0.59865,6.05303c0.31041,1.86247 0.73168,3.01543 1.26382,3.45887z" data-paper-data="{&quot;elementType&quot;:&quot;letter&quot;,&quot;baseline&quot;:71.97265625,&quot;baselineProportion&quot;:1,&quot;fontSize&quot;:100}"></path><path d="M340.25795,200.88844c-0.97558,0.53213 -2.26157,1.88464 -3.85797,4.05752c-1.5964,2.17288 -3.41453,4.90007 -5.45438,8.18156c-2.03985,3.28149 -4.2349,6.93992 -6.58516,10.97527c-2.35026,4.03535 -4.72269,8.20374 -7.1173,12.50516c-2.3946,4.30142 -4.72269,8.60284 -6.98426,12.90426c-2.26157,4.30142 -4.36794,8.29243 -6.31909,11.97302c-1.95116,3.6806 -3.65842,6.91775 -5.12179,9.71145c-1.46337,2.7937 -2.54981,4.90007 -3.25932,6.31909l-6.78471,13.17032c-0.70951,1.41902 -1.41902,2.81588 -2.12854,4.19056c-0.70951,1.37468 -1.50771,2.72719 -2.3946,4.05752c-1.15296,0.17738 -2.26157,0.22172 -3.32584,0.13303c-1.06427,-0.08869 -2.17288,-0.13303 -3.32584,-0.13303h-16.09706c-0.97558,-1.86247 -2.3946,-4.634 -4.25707,-8.3146c-1.86247,-3.6806 -4.01318,-7.89332 -6.45213,-12.63819c-2.43895,-4.74486 -5.12179,-9.84448 -8.04853,-15.29886c-2.92674,-5.45438 -5.87565,-10.93092 -8.84673,-16.42965c-2.97108,-5.49872 -5.91999,-10.84224 -8.84673,-16.03054c-2.92674,-5.18831 -5.65393,-9.84448 -8.18156,-13.96852c-2.52764,-4.12404 -4.76704,-7.56074 -6.7182,-10.3101c-1.95116,-2.74936 -3.45887,-4.43445 -4.52314,-5.05528c4.8779,0 9.75579,0.02217 14.63369,0.06652c4.8779,0.04434 9.80014,0.02217 14.76673,-0.06652c-0.26607,0.17738 -0.42127,0.42127 -0.46562,0.73168c-0.04434,0.31041 -0.06652,0.59865 -0.06652,0.86472c0,1.86247 0.77603,4.83355 2.32809,8.91325c1.55206,4.0797 3.56973,8.73587 6.05303,13.96852c2.48329,5.23265 5.23265,10.73137 8.24808,16.49616c3.01543,5.76479 5.94217,11.28568 8.78022,16.56268c2.83805,5.277 5.4322,9.99969 7.78246,14.16807c2.35026,4.16839 4.14621,7.2725 5.38786,9.31235c1.15296,-2.03985 2.92674,-5.14396 5.32134,-9.31235c2.3946,-4.16839 5.01093,-8.89108 7.84898,-14.16807c2.83805,-5.277 5.76479,-10.79789 8.78022,-16.56268c3.01543,-5.76479 5.74262,-11.26351 8.18156,-16.49616c2.43895,-5.23265 4.45662,-9.88883 6.05303,-13.96852c1.5964,-4.0797 2.3946,-7.05078 2.3946,-8.91325c0,-0.26607 -0.02217,-0.55431 -0.06652,-0.86472c-0.04434,-0.31041 -0.19955,-0.55431 -0.46562,-0.73168c4.8779,0.08869 9.73362,0.11086 14.56718,0.06652c4.83355,-0.04434 9.68928,-0.06652 14.56718,-0.06652z" data-paper-data="{&quot;elementType&quot;:&quot;letter&quot;,&quot;baseline&quot;:71.97265625,&quot;baselineProportion&quot;:0.9981941309255078,&quot;fontSize&quot;:100}"></path><path d="M353.41763,298.93418c0.53213,-0.53213 0.97558,-2.2394 1.33034,-5.12179c0.35476,-2.88239 0.643,-6.36344 0.86472,-10.44313c0.22172,-4.0797 0.35476,-8.51415 0.3991,-13.30336c0.04434,-4.78921 0.06652,-9.35669 0.06652,-13.70246c0,-4.34576 -0.02217,-8.18156 -0.06652,-11.5074c-0.04434,-3.32584 -0.06652,-5.65393 -0.06652,-6.98426c0,-0.7982 0,-2.17288 0,-4.12404c0,-1.95116 -0.02217,-4.12404 -0.06652,-6.51864c-0.04434,-2.3946 -0.11086,-4.94441 -0.19955,-7.64943c-0.08869,-2.70502 -0.24389,-5.21048 -0.46562,-7.5164c-0.22172,-2.30592 -0.50996,-4.32359 -0.86472,-6.05303c-0.35476,-1.72944 -0.7982,-2.90457 -1.33034,-3.52539c-0.26607,-0.26607 -0.55431,-0.53213 -0.86472,-0.7982c-0.31041,-0.26607 -0.59865,-0.53213 -0.86472,-0.7982l96.58237,0.26607l-1.46337,14.76673c-0.44345,-0.17738 -1.52989,-0.31041 -3.25932,-0.3991c-1.72944,-0.08869 -3.8358,-0.17738 -6.31909,-0.26607c-2.48329,-0.08869 -5.14396,-0.15521 -7.98201,-0.19955c-2.83805,-0.04434 -5.52089,-0.06652 -8.04853,-0.06652c-2.52764,0 -4.76704,0 -6.7182,0c-1.95116,0 -3.28149,0 -3.99101,0c-11.3522,0 -22.74874,0.13303 -34.18963,0.3991c-0.44345,4.43445 -0.70951,8.84673 -0.7982,13.23684c-0.08869,4.39011 -0.13303,8.84673 -0.13303,13.36987l61.19544,-0.66517l-0.13303,14.23459c-0.35476,-0.08869 -1.21947,-0.19955 -2.59415,-0.33258c-1.37468,-0.13303 -2.99326,-0.22172 -4.85573,-0.26607c-1.86247,-0.04434 -3.88015,-0.08869 -6.05303,-0.13303c-2.17288,-0.04434 -4.21273,-0.06652 -6.11954,-0.06652c-1.90681,0 -3.61408,0 -5.12179,0c-1.50771,0 -2.52764,0 -3.05977,0c-11.08613,0 -22.21661,0.13303 -33.39142,0.3991c0,3.99101 -0.02217,7.95984 -0.06652,11.9065c-0.04434,3.94666 -0.06652,7.9155 -0.06652,11.9065v5.32134c6.29692,0.26607 12.57167,0.3991 18.82425,0.3991c6.25258,0 12.52733,0 18.82425,0c0.62082,0 1.90681,0 3.85797,0c1.95116,0 4.21273,0 6.78471,0c2.57198,0 5.25483,-0.02217 8.04853,-0.06652c2.7937,-0.04434 5.4322,-0.08869 7.9155,-0.13303c2.48329,-0.04434 4.58966,-0.11086 6.31909,-0.19955c1.72944,-0.08869 2.81588,-0.22172 3.25932,-0.3991l1.46337,14.76673z" data-paper-data="{&quot;elementType&quot;:&quot;letter&quot;,&quot;baseline&quot;:71.97265625,&quot;baselineProportion&quot;:1,&quot;fontSize&quot;:100}"></path></g></g></g></g></g></svg>